0
SECTION
2
HEADER
9
$INSUNITS
70
4
9
$ACADVER
1
AC1014
9
$HANDSEED
5
FFFF
0
ENDSEC
0
SECTION
2
TABLES
0
TABLE
2
VPORT
5
8
100
AcDbSymbolTable
0
ENDTAB
0
TABLE
2
LTYPE
5
5
100
AcDbSymbolTable
0
LTYPE
5
14
100
AcDbSymbolTableRecord
100
AcDbLinetypeTableRecord
2
BYBLOCK
70
0
0
LTYPE
5
15
100
AcDbSymbolTableRecord
100
AcDbLinetypeTableRecord
2
BYLAYER
70
0
0
ENDTAB
0
TABLE
2
LAYER
5
2
100
AcDbSymbolTable
70
2
0
LAYER
5
50
100
AcDbSymbolTableRecord
100
AcDbLayerTableRecord
2
0
70
0
6
CONTINUOUS
0
ENDTAB
0
TABLE
2
STYLE
5
3
100
AcDbSymbolTable
70
1
0
STYLE
5
11
100
AcDbSymbolTableRecord
100
AcDbTextStyleTableRecord
2
STANDARD
70
0
0
ENDTAB
0
TABLE
2
VIEW
5
6
100
AcDbSymbolTable
70
0
0
ENDTAB
0
TABLE
2
UCS
5
7
100
AcDbSymbolTable
70
0
0
ENDTAB
0
TABLE
2
APPID
5
9
100
AcDbSymbolTable
70
2
0
APPID
5
12
100
AcDbSymbolTableRecord
100
AcDbRegAppTableRecord
2
ACAD
70
0
0
ENDTAB
0
TABLE
2
DIMSTYLE
5
A
100
AcDbSymbolTable
70
1
0
ENDTAB
0
TABLE
2
BLOCK_RECORD
5
1
100
AcDbSymbolTable
70
1
0
BLOCK_RECORD
5
1F
100
AcDbSymbolTableRecord
100
AcDbBlockTableRecord
2
*MODEL_SPACE
0
BLOCK_RECORD
5
1B
100
AcDbSymbolTableRecord
100
AcDbBlockTableRecord
2
*PAPER_SPACE
0
ENDTAB
0
ENDSEC
0
SECTION
2
BLOCKS
0
BLOCK
5
20
100
AcDbEntity
100
AcDbBlockBegin
2
*MODEL_SPACE
0
ENDBLK
5
21
100
AcDbEntity
100
AcDbBlockEnd
0
BLOCK
5
1C
100
AcDbEntity
100
AcDbBlockBegin
2
*PAPER_SPACE
0
ENDBLK
5
1D
100
AcDbEntity
100
AcDbBlockEnd
0
ENDSEC
0
SECTION
2
ENTITIES
0
CIRCLE
5
100
100
AcDbEntity
8
0
100
AcDbCircle
10
148.4852813742385
20
156.51471862576142
30
0
40
1.4999999999999858
210
0
220
-0
230
1
0
LWPOLYLINE
5
101
100
AcDbEntity
8
0
100
AcDbPolyline
90
4
70
1
43
0.0
10
236.59999999999999
20
-3.099999999999997
10
233.40000000000001
20
-3.099999999999997
10
233.40000000000001
20
3.1000000000000041
10
236.59999999999999
20
3.1000000000000041
0
LWPOLYLINE
5
102
100
AcDbEntity
8
0
100
AcDbPolyline
90
4
70
1
43
0.0
10
233.40000000000001
20
57.100000000000009
10
236.59999999999999
20
57.100000000000009
10
236.59999999999999
20
50.900000000000006
10
233.40000000000001
20
50.900000000000006
0
LWPOLYLINE
5
103
100
AcDbEntity
8
0
100
AcDbPolyline
90
4
70
1
43
0.0
10
233.40000000000001
20
39.100000000000001
10
236.59999999999999
20
39.100000000000001
10
236.59999999999999
20
32.900000000000006
10
233.40000000000001
20
32.900000000000006
0
LWPOLYLINE
5
104
100
AcDbEntity
8
0
100
AcDbPolyline
90
4
70
1
43
0.0
10
236.59999999999999
20
-39.099999999999994
10
233.40000000000001
20
-39.099999999999994
10
233.40000000000001
20
-32.899999999999999
10
236.59999999999999
20
-32.899999999999999
0
LWPOLYLINE
5
105
100
AcDbEntity
8
0
100
AcDbPolyline
90
4
70
1
43
0.0
10
236.59999999999999
20
-21.099999999999994
10
233.40000000000001
20
-21.099999999999994
10
233.40000000000001
20
-14.899999999999995
10
236.59999999999999
20
-14.899999999999995
0
CIRCLE
5
106
100
AcDbEntity
8
0
100
AcDbCircle
10
196.51471862576162
20
108.48528137423834
30
0
40
1.5000000000000036
210
0
220
-0
230
1
0
LWPOLYLINE
5
107
100
AcDbEntity
8
0
100
AcDbPolyline
90
4
70
1
43
0.0
10
236.59999999999999
20
21.100000000000001
10
236.59999999999999
20
14.900000000000004
10
233.40000000000001
20
14.900000000000004
10
233.40000000000001
20
21.100000000000001
0
CIRCLE
5
108
100
AcDbEntity
8
0
100
AcDbCircle
10
73.485281374238724
20
108.4852813742387
30
0
40
1.5000000000000036
210
0
220
-0
230
1
0
CIRCLE
5
109
100
AcDbEntity
8
0
100
AcDbCircle
10
121.51471862576145
20
156.51471862576133
30
0
40
1.5000000000000036
210
0
220
-0
230
1
0
LWPOLYLINE
5
110
100
AcDbEntity
8
0
100
AcDbPolyline
90
4
70
1
43
0.0
10
236.59999999999999
20
-57.100000000000001
10
233.40000000000001
20
-57.100000000000001
10
233.40000000000001
20
-50.899999999999999
10
236.59999999999999
20
-50.899999999999999
0
LWPOLYLINE
5
111
100
AcDbEntity
8
0
100
AcDbPolyline
90
4
70
1
43
0.0
10
233.40000000000001
20
-68.900000000000006
10
236.59999999999999
20
-68.900000000000006
10
236.59999999999999
20
-75.100000000000009
10
233.40000000000001
20
-75.100000000000009
0
CIRCLE
5
112
100
AcDbEntity
8
0
100
AcDbCircle
10
121.51471862576145
20
-156.51471862576133
30
0
40
1.5000000000000036
210
0
220
-0
230
1
0
CIRCLE
5
113
100
AcDbEntity
8
0
100
AcDbCircle
10
73.485281374238724
20
-108.4852813742387
30
0
40
1.5000000000000036
210
0
220
-0
230
1
0
CIRCLE
5
114
100
AcDbEntity
8
0
100
AcDbCircle
10
196.51471862576162
20
-108.48528137423834
30
0
40
1.5000000000000036
210
0
220
-0
230
1
0
CIRCLE
5
115
100
AcDbEntity
8
0
100
AcDbCircle
10
148.4852813742385
20
-156.51471862576142
30
0
40
1.4999999999999858
210
0
220
-0
230
1
0
ARC
5
116
100
AcDbEntity
8
0
100
AcDbCircle
10
270
20
100
30
0
40
1.5000000000000213
210
0
220
-0
230
1
100
AcDbArc
50
89.999999999997826
51
270.0000000000021
0
LINE
5
117
100
AcDbEntity
8
0
100
AcDbLine
10
270.00000000000006
20
110
30
0
11
270.00000000000006
21
101.50000000000003
31
0
0
ARC
5
118
100
AcDbEntity
8
0
100
AcDbCircle
10
270
20
-100
30
0
40
1.5000000000000213
210
0
220
-0
230
1
100
AcDbArc
50
89.999999999997826
51
270.0000000000021
0
ARC
5
119
100
AcDbEntity
8
0
100
AcDbCircle
10
1.2246467991473523e-15
20
-100
30
0
40
1.5000000000000036
210
0
220
0
230
1
100
AcDbArc
50
-89.999999999997456
51
90.000000000000455
0
ARC
5
120
100
AcDbEntity
8
0
100
AcDbCircle
10
1.2246467991473523e-15
20
100
30
0
40
1.5000000000000036
210
0
220
0
230
1
100
AcDbArc
50
-89.999999999997499
51
89.999999999997456
0
LWPOLYLINE
5
121
100
AcDbEntity
8
0
100
AcDbPolyline
90
4
70
1
43
0.0
10
3.3999999999999959
20
-57.100000000000001
10
3.3999999999999968
20
-50.899999999999999
10
6.5999999999999979
20
-50.899999999999999
10
6.5999999999999979
20
-57.100000000000001
0
LWPOLYLINE
5
122
100
AcDbEntity
8
0
100
AcDbPolyline
90
4
70
1
43
0.0
10
3.3999999999999959
20
-39.099999999999994
10
3.3999999999999968
20
-32.899999999999999
10
6.5999999999999979
20
-32.899999999999999
10
6.5999999999999979
20
-39.099999999999994
0
LWPOLYLINE
5
123
100
AcDbEntity
8
0
100
AcDbPolyline
90
4
70
1
43
0.0
10
3.3999999999999959
20
-21.099999999999994
10
3.3999999999999968
20
-14.899999999999995
10
6.5999999999999979
20
-14.899999999999995
10
6.5999999999999979
20
-21.099999999999994
0
LWPOLYLINE
5
124
100
AcDbEntity
8
0
100
AcDbPolyline
90
4
70
1
43
0.0
10
3.3999999999999959
20
-3.099999999999997
10
3.3999999999999968
20
3.1000000000000041
10
6.5999999999999979
20
3.1000000000000041
10
6.5999999999999979
20
-3.099999999999997
0
LWPOLYLINE
5
125
100
AcDbEntity
8
0
100
AcDbPolyline
90
4
70
1
43
0.0
10
3.3999999999999959
20
14.900000000000004
10
3.3999999999999968
20
21.100000000000001
10
6.5999999999999979
20
21.100000000000001
10
6.5999999999999979
20
14.900000000000004
0
LWPOLYLINE
5
126
100
AcDbEntity
8
0
100
AcDbPolyline
90
4
70
1
43
0.0
10
3.3999999999999959
20
32.900000000000006
10
3.3999999999999968
20
39.100000000000001
10
6.5999999999999979
20
39.100000000000001
10
6.5999999999999979
20
32.900000000000006
0
LWPOLYLINE
5
127
100
AcDbEntity
8
0
100
AcDbPolyline
90
4
70
1
43
0.0
10
3.3999999999999959
20
50.900000000000006
10
3.3999999999999968
20
57.100000000000009
10
6.5999999999999979
20
57.100000000000009
10
6.5999999999999979
20
50.900000000000006
0
LWPOLYLINE
5
128
100
AcDbEntity
8
0
100
AcDbPolyline
90
4
70
1
43
0.0
10
3.3999999999999959
20
68.900000000000006
10
3.3999999999999968
20
75.100000000000009
10
6.5999999999999979
20
75.100000000000009
10
6.5999999999999979
20
68.900000000000006
0
LINE
5
129
100
AcDbEntity
8
0
100
AcDbLine
10
-1.0562578642645922e-14
20
-98.5
30
0
11
6.6239494047112698e-14
21
98.5
31
0
0
CIRCLE
5
130
100
AcDbEntity
8
0
100
AcDbCircle
10
205
20
100
30
0
40
1.5000000000000213
210
0
220
-0
230
1
0
CIRCLE
5
131
100
AcDbEntity
8
0
100
AcDbCircle
10
205
20
-100
30
0
40
1.5000000000000213
210
0
220
-0
230
1
0
CIRCLE
5
132
100
AcDbEntity
8
0
100
AcDbCircle
10
65
20
-100
30
0
40
1.4999999999999947
210
0
220
-0
230
1
0
CIRCLE
5
133
100
AcDbEntity
8
0
100
AcDbCircle
10
65
20
100
30
0
40
1.4999999999999947
210
0
220
-0
230
1
0
LINE
5
134
100
AcDbEntity
8
0
100
AcDbLine
10
270.00000000000006
20
-110
30
0
11
270.00000000000006
21
-101.50000000000003
31
0
0
LINE
5
135
100
AcDbEntity
8
0
100
AcDbLine
10
66.499999999999986
20
-165
30
0
11
203.50000000000006
21
-165
31
0
0
LINE
5
136
100
AcDbEntity
8
0
100
AcDbLine
10
55
20
-165
30
0
11
55
21
-109.99999999999999
31
0
0
LINE
5
137
100
AcDbEntity
8
0
100
AcDbLine
10
55
20
-109.99999999999999
30
0
11
7.1054273576010019e-14
21
-110.00000000000001
31
0
0
LINE
5
138
100
AcDbEntity
8
0
100
AcDbLine
10
6.7562482746848596e-14
20
-101.5
30
0
11
7.1054273576010019e-14
21
-110.00000000000001
31
0
0
LINE
5
139
100
AcDbEntity
8
0
100
AcDbLine
10
6.8262943693980349e-14
20
101.5
30
0
11
7.3973039037384763e-14
21
110.00000000000001
31
0
0
LINE
5
140
100
AcDbEntity
8
0
100
AcDbLine
10
55
20
109.99999999999999
30
0
11
7.3973039037384763e-14
21
110.00000000000001
31
0
0
LINE
5
141
100
AcDbEntity
8
0
100
AcDbLine
10
55
20
165
30
0
11
55
21
109.99999999999999
31
0
0
LINE
5
142
100
AcDbEntity
8
0
100
AcDbLine
10
215
20
110
30
0
11
215
21
164.99999999999994
31
0
0
LINE
5
143
100
AcDbEntity
8
0
100
AcDbLine
10
270.00000000000006
20
110
30
0
11
215
21
110
31
0
0
LINE
5
144
100
AcDbEntity
8
0
100
AcDbLine
10
270.00000000000006
20
-110
30
0
11
215
21
-110
31
0
0
LINE
5
145
100
AcDbEntity
8
0
100
AcDbLine
10
215
20
-110
30
0
11
215
21
-165
31
0
0
LINE
5
146
100
AcDbEntity
8
0
100
AcDbLine
10
270.00000000000006
20
-98.499999999999972
30
0
11
270.00000000000006
21
98.499999999999972
31
0
0
LINE
5
147
100
AcDbEntity
8
0
100
AcDbLine
10
215
20
-165
30
0
11
206.50000000000003
21
-165
31
0
0
LINE
5
148
100
AcDbEntity
8
0
100
AcDbLine
10
55
20
165
30
0
11
63.500000000000014
21
165
31
0
0
ARC
5
149
100
AcDbEntity
8
0
100
AcDbCircle
10
205.00000000000003
20
-165
30
0
40
1.4999999999999858
210
0
220
0
230
1
100
AcDbArc
50
0
51
180
0
ARC
5
150
100
AcDbEntity
8
0
100
AcDbCircle
10
65
20
-165
30
0
40
1.4999999999999858
210
0
220
0
230
1
100
AcDbArc
50
0
51
180
0
LINE
5
151
100
AcDbEntity
8
0
100
AcDbLine
10
55
20
-165
30
0
11
63.500000000000014
21
-165
31
0
0
ARC
5
152
100
AcDbEntity
8
0
100
AcDbCircle
10
65
20
165
30
0
40
1.4999999999999858
210
0
220
0
230
1
100
AcDbArc
50
-180
51
0
0
LINE
5
153
100
AcDbEntity
8
0
100
AcDbLine
10
203.50000000000006
20
165
30
0
11
66.499999999999986
21
165
31
0
0
ARC
5
154
100
AcDbEntity
8
0
100
AcDbCircle
10
205.00000000000003
20
165
30
0
40
1.4999999999999858
210
0
220
0
230
1
100
AcDbArc
50
-180
51
0
0
LINE
5
155
100
AcDbEntity
8
0
100
AcDbLine
10
215
20
164.99999999999994
30
0
11
206.50000000000003
21
165
31
0
0
LINE
5
156
100
AcDbEntity
8
0
100
AcDbLine
10
55
20
-109.99999999999999
30
0
11
65
21
-100
31
0
0
LINE
5
157
100
AcDbEntity
8
0
100
AcDbLine
10
215
20
-110
30
0
11
205
21
-100
31
0
0
LINE
5
158
100
AcDbEntity
8
0
100
AcDbLine
10
215
20
110
30
0
11
205
21
100
31
0
0
LINE
5
159
100
AcDbEntity
8
0
100
AcDbLine
10
55
20
109.99999999999999
30
0
11
65
21
100
31
0
0
ENDSEC
0
SECTION
2
OBJECTS
0
DICTIONARY
5
C
100
AcDbDictionary
3
ACAD_GROUP
350
D
3
ACAD_MLINESTYLE
350
17
0
DICTIONARY
5
D
100
AcDbDictionary
0
DICTIONARY
5
1A
330
C
100
AcDbDictionary
0
DICTIONARY
5
17
100
AcDbDictionary
0
ENDSEC
0
EOF
