0
SECTION
2
HEADER
9
$INSUNITS
70
4
9
$ACADVER
1
AC1014
9
$HANDSEED
5
FFFF
0
ENDSEC
0
SECTION
2
TABLES
0
TABLE
2
VPORT
5
8
100
AcDbSymbolTable
0
ENDTAB
0
TABLE
2
LTYPE
5
5
100
AcDbSymbolTable
0
LTYPE
5
14
100
AcDbSymbolTableRecord
100
AcDbLinetypeTableRecord
2
BYBLOCK
70
0
0
LTYPE
5
15
100
AcDbSymbolTableRecord
100
AcDbLinetypeTableRecord
2
BYLAYER
70
0
0
ENDTAB
0
TABLE
2
LAYER
5
2
100
AcDbSymbolTable
70
2
0
LAYER
5
50
100
AcDbSymbolTableRecord
100
AcDbLayerTableRecord
2
0
70
0
6
CONTINUOUS
0
ENDTAB
0
TABLE
2
STYLE
5
3
100
AcDbSymbolTable
70
1
0
STYLE
5
11
100
AcDbSymbolTableRecord
100
AcDbTextStyleTableRecord
2
STANDARD
70
0
0
ENDTAB
0
TABLE
2
VIEW
5
6
100
AcDbSymbolTable
70
0
0
ENDTAB
0
TABLE
2
UCS
5
7
100
AcDbSymbolTable
70
0
0
ENDTAB
0
TABLE
2
APPID
5
9
100
AcDbSymbolTable
70
2
0
APPID
5
12
100
AcDbSymbolTableRecord
100
AcDbRegAppTableRecord
2
ACAD
70
0
0
ENDTAB
0
TABLE
2
DIMSTYLE
5
A
100
AcDbSymbolTable
70
1
0
ENDTAB
0
TABLE
2
BLOCK_RECORD
5
1
100
AcDbSymbolTable
70
1
0
BLOCK_RECORD
5
1F
100
AcDbSymbolTableRecord
100
AcDbBlockTableRecord
2
*MODEL_SPACE
0
BLOCK_RECORD
5
1B
100
AcDbSymbolTableRecord
100
AcDbBlockTableRecord
2
*PAPER_SPACE
0
ENDTAB
0
ENDSEC
0
SECTION
2
BLOCKS
0
BLOCK
5
20
100
AcDbEntity
100
AcDbBlockBegin
2
*MODEL_SPACE
0
ENDBLK
5
21
100
AcDbEntity
100
AcDbBlockEnd
0
BLOCK
5
1C
100
AcDbEntity
100
AcDbBlockBegin
2
*PAPER_SPACE
0
ENDBLK
5
1D
100
AcDbEntity
100
AcDbBlockEnd
0
ENDSEC
0
SECTION
2
ENTITIES
0
LWPOLYLINE
5
100
100
AcDbEntity
8
0
100
AcDbPolyline
90
16
70
1
43
0.0
10
-4.4408920985006262e-15
20
-155
42
0.41421356237309503
10
15
20
-170
10
255
20
-170
42
0.41421356237309503
10
270
20
-155
10
270
20
-122
42
-0.99999999999999989
10
270
20
-118
10
270
20
118
42
-0.99999999999999989
10
270
20
122
10
270
20
155
42
0.41421356237309503
10
255
20
170
10
15.000000000000004
20
170
42
0.41421356237309515
10
0
20
155
10
-3.367667309188957e-15
20
102
42
-0.99999999999999989
10
5.8169609074836619e-15
20
98
10
-4.660325288629765e-15
20
-98
42
-0.99999999999999989
10
7.1096188869244695e-15
20
-102
0
LWPOLYLINE
5
101
100
AcDbEntity
8
0
100
AcDbPolyline
90
4
70
1
43
0.0
10
233.90000000000001
20
-21.099999999999994
10
233.90000000000001
20
-14.899999999999984
10
237.10000000000002
20
-14.899999999999984
10
237.10000000000002
20
-21.099999999999994
0
LWPOLYLINE
5
102
100
AcDbEntity
8
0
100
AcDbPolyline
90
4
70
1
43
0.0
10
237.10000000000002
20
14.900000000000002
10
233.90000000000001
20
14.900000000000002
10
233.90000000000001
20
21.099999999999994
10
237.10000000000002
20
21.099999999999994
0
LWPOLYLINE
5
103
100
AcDbEntity
8
0
100
AcDbPolyline
90
4
70
1
43
0.0
10
233.90000000000001
20
-3.0999999999999872
10
233.90000000000001
20
3.0999999999999872
10
237.10000000000002
20
3.0999999999999872
10
237.10000000000002
20
-3.0999999999999872
0
LWPOLYLINE
5
104
100
AcDbEntity
8
0
100
AcDbPolyline
90
4
70
1
43
0.0
10
233.90000000000001
20
75.099999999999994
10
237.10000000000002
20
75.099999999999994
10
237.10000000000002
20
68.900000000000006
10
233.90000000000001
20
68.900000000000006
0
LWPOLYLINE
5
105
100
AcDbEntity
8
0
100
AcDbPolyline
90
4
70
1
43
0.0
10
237.10000000000002
20
57.100000000000009
10
237.10000000000002
20
50.899999999999999
10
233.90000000000001
20
50.899999999999999
10
233.90000000000001
20
57.100000000000009
0
LWPOLYLINE
5
106
100
AcDbEntity
8
0
100
AcDbPolyline
90
4
70
1
43
0.0
10
237.10000000000002
20
39.100000000000001
10
237.10000000000002
20
32.900000000000006
10
233.90000000000001
20
32.900000000000006
10
233.90000000000001
20
39.100000000000001
0
LWPOLYLINE
5
107
100
AcDbEntity
8
0
100
AcDbPolyline
90
4
70
1
43
0.0
10
233.90000000000001
20
-39.100000000000001
10
233.90000000000001
20
-32.899999999999991
10
237.10000000000002
20
-32.899999999999991
10
237.10000000000002
20
-39.100000000000001
0
LWPOLYLINE
5
108
100
AcDbEntity
8
0
100
AcDbPolyline
90
4
70
1
43
0.0
10
237.10000000000002
20
-75.09999999999998
10
233.90000000000001
20
-75.09999999999998
10
233.90000000000001
20
-68.900000000000006
10
237.10000000000002
20
-68.900000000000006
0
LWPOLYLINE
5
109
100
AcDbEntity
8
0
100
AcDbPolyline
90
4
70
1
43
0.0
10
233.90000000000001
20
-57.100000000000009
10
233.90000000000001
20
-50.899999999999999
10
237.10000000000002
20
-50.899999999999999
10
237.10000000000002
20
-57.100000000000009
0
LWPOLYLINE
5
110
100
AcDbEntity
8
0
100
AcDbPolyline
90
4
70
1
43
0.0
10
6.0999999999999961
20
-21.099999999999998
10
2.8999999999999959
20
-21.099999999999998
10
2.8999999999999959
20
-14.9
10
6.0999999999999961
20
-14.9
0
LWPOLYLINE
5
111
100
AcDbEntity
8
0
100
AcDbPolyline
90
4
70
1
43
0.0
10
6.0999999999999961
20
-39.099999999999994
10
2.8999999999999959
20
-39.099999999999994
10
2.8999999999999959
20
-32.900000000000006
10
6.0999999999999961
20
-32.900000000000006
0
LWPOLYLINE
5
112
100
AcDbEntity
8
0
100
AcDbPolyline
90
4
70
1
43
0.0
10
6.0999999999999961
20
32.900000000000006
10
2.8999999999999959
20
32.900000000000006
10
2.8999999999999959
20
39.099999999999994
10
6.0999999999999961
20
39.099999999999994
0
LWPOLYLINE
5
113
100
AcDbEntity
8
0
100
AcDbPolyline
90
4
70
1
43
0.0
10
6.0999999999999961
20
50.900000000000006
10
2.8999999999999959
20
50.900000000000006
10
2.8999999999999959
20
57.100000000000001
10
6.0999999999999961
20
57.100000000000001
0
LWPOLYLINE
5
114
100
AcDbEntity
8
0
100
AcDbPolyline
90
4
70
1
43
0.0
10
6.0999999999999961
20
-75.099999999999994
10
2.8999999999999959
20
-75.099999999999994
10
2.8999999999999959
20
-68.900000000000006
10
6.0999999999999961
20
-68.900000000000006
0
LWPOLYLINE
5
115
100
AcDbEntity
8
0
100
AcDbPolyline
90
4
70
1
43
0.0
10
6.0999999999999961
20
-3.1000000000000001
10
2.8999999999999959
20
-3.1000000000000001
10
2.8999999999999959
20
3.1000000000000001
10
6.0999999999999961
20
3.1000000000000001
0
LWPOLYLINE
5
116
100
AcDbEntity
8
0
100
AcDbPolyline
90
4
70
1
43
0.0
10
6.0999999999999961
20
68.900000000000006
10
2.8999999999999959
20
68.900000000000006
10
2.8999999999999959
20
75.099999999999994
10
6.0999999999999961
20
75.099999999999994
0
LWPOLYLINE
5
117
100
AcDbEntity
8
0
100
AcDbPolyline
90
4
70
1
43
0.0
10
6.0999999999999961
20
-57.100000000000001
10
2.8999999999999959
20
-57.100000000000001
10
2.8999999999999959
20
-50.900000000000006
10
6.0999999999999961
20
-50.900000000000006
0
LWPOLYLINE
5
118
100
AcDbEntity
8
0
100
AcDbPolyline
90
4
70
1
43
0.0
10
6.0999999999999961
20
14.9
10
2.8999999999999959
20
14.9
10
2.8999999999999959
20
21.099999999999998
10
6.0999999999999961
20
21.099999999999998
0
ENDSEC
0
SECTION
2
OBJECTS
0
DICTIONARY
5
C
100
AcDbDictionary
3
ACAD_GROUP
350
D
3
ACAD_MLINESTYLE
350
17
0
DICTIONARY
5
D
100
AcDbDictionary
0
DICTIONARY
5
1A
330
C
100
AcDbDictionary
0
DICTIONARY
5
17
100
AcDbDictionary
0
ENDSEC
0
EOF
